<svg width="20" height="19" viewBox="0 0 20 19" fill="none" xmlns="http://www.w3.org/2000/svg">
    <path d="M7.7847 14.4757C6.10321 13.808 4.88879 12.23 4.60854 10.1057H19.0258L19.057 9.1042C19.0258 3.64168 14.9466 0 9.68417 0C4.07918 0 0 4.09689 0 9.28628C0 13.8384 3.08274 17.5407 7.7847 18.3905V14.4757ZM9.71531 3.64168C11.8639 3.64168 13.3274 4.76453 14.0747 6.58537H5.07563C5.88523 4.79488 7.50445 3.64168 9.71531 3.64168Z" fill="#0D71F9"/>
    <path d="M16.0331 17.6105C17.1275 16.5439 17.1275 14.8145 16.0331 13.7479C14.9386 12.6813 13.1642 12.6813 12.0698 13.7479C10.9753 14.8145 10.9753 16.5439 12.0698 17.6105C13.1642 18.6771 14.9386 18.6771 16.0331 17.6105Z" fill="#F92DD3"/>
</svg>
